<svg width="600" height="337" viewBox="0 0 800 600" fill="none" xmlns="http://www.w3.org/2000/svg">
    <path fill-rule="evenodd" clip-rule="evenodd"
        d="M282.063 197.557C282.181 200.147 280.177 202.342 277.587 202.459C274.094 202.618 273.108 203.815 272.655 204.701C271.959 206.059 271.743 208.356 272.249 211.512C272.733 214.528 273.762 217.635 274.719 220.064C275.19 221.26 275.628 222.252 275.945 222.938C276.103 223.28 276.23 223.544 276.314 223.717C276.356 223.803 276.388 223.866 276.407 223.905L276.427 223.944L276.427 223.945C276.428 223.946 276.428 223.947 276.428 223.947M276.428 223.947C277.609 226.254 276.698 229.081 274.392 230.263C272.085 231.446 269.256 230.535 268.073 228.228L272.212 226.106C268.073 228.228 268.073 228.226 268.072 228.225L268.066 228.213L268.054 228.189L268.014 228.111C267.981 228.045 267.936 227.954 267.88 227.839C267.768 227.609 267.611 227.283 267.422 226.873C267.044 226.054 266.533 224.896 265.985 223.505C264.904 220.761 263.615 216.952 262.98 212.998C262.368 209.184 262.234 204.456 264.298 200.423C266.605 195.918 271.058 193.358 277.161 193.081C279.751 192.964 281.946 194.968 282.063 197.557"
        fill="#B08874"></path>
    <path fill-rule="evenodd" clip-rule="evenodd"
        d="M255.791 179.412C258.316 178.825 260.839 180.396 261.426 182.921L269.997 219.771C270.584 222.296 269.013 224.819 266.488 225.406C263.964 225.994 261.441 224.423 260.853 221.898L252.283 185.047C251.695 182.522 253.266 179.999 255.791 179.412Z"
        fill="#B08874"></path>
    <path fill-rule="evenodd" clip-rule="evenodd"
        d="M247.382 183.488C249.903 182.884 252.436 184.438 253.04 186.959L261.506 222.305C262.11 224.826 260.556 227.359 258.035 227.963C255.514 228.567 252.981 227.013 252.377 224.492L243.911 189.146C243.307 186.625 244.861 184.092 247.382 183.488Z"
        fill="#B08874"></path>
    <path fill-rule="evenodd" clip-rule="evenodd"
        d="M240.886 194.861C243.398 194.223 245.952 195.743 246.59 198.256L253.958 227.283C254.595 229.796 253.076 232.35 250.563 232.987C248.05 233.625 245.496 232.105 244.859 229.593L237.491 200.565C236.853 198.052 238.373 195.498 240.886 194.861Z"
        fill="#B08874"></path>
    <path
        d="M277.374 238.247L255.355 246.985C255.355 246.985 240.849 239.175 243.097 214.345L269.588 211.819L276.268 227.58L277.374 238.247Z"
        fill="#B08874"></path>
    <path
        d="M282.828 243.493C282.828 243.493 287.638 228.497 287.872 216.779C288.065 207.141 283.98 200.372 281.77 200.37C276.543 200.364 278.672 207.287 277.663 212.194C276.977 215.529 276.192 218.081 272.878 218.859L269.572 219.635L266.96 235.111L282.828 243.493Z"
        fill="#B08874"></path>
    <path fill-rule="evenodd" clip-rule="evenodd"
        d="M517.26 197.516C517.377 194.926 519.572 192.922 522.161 193.04C528.265 193.317 532.718 195.876 535.024 200.382C537.089 204.414 536.954 209.142 536.342 212.957C535.708 216.91 534.419 220.72 533.338 223.464C532.79 224.854 532.279 226.013 531.901 226.831C531.712 227.241 531.555 227.568 531.443 227.798C531.387 227.913 531.341 228.004 531.309 228.069L531.269 228.147L531.257 228.172L531.251 228.184C531.25 228.185 531.249 228.186 527.121 226.07L531.249 228.186C530.067 230.493 527.238 231.405 524.931 230.222C522.626 229.04 521.714 226.214 522.893 223.908C522.894 223.908 522.893 223.908 522.893 223.908L522.894 223.906C522.895 223.905 522.895 223.904 522.895 223.904L522.896 223.903L522.916 223.863C522.935 223.825 522.967 223.762 523.009 223.675C523.093 223.503 523.22 223.239 523.378 222.897C523.694 222.211 524.132 221.219 524.604 220.022C525.561 217.593 526.589 214.487 527.073 211.47C527.579 208.315 527.363 206.018 526.668 204.66C526.215 203.774 525.229 202.576 521.736 202.418C519.146 202.3 517.142 200.105 517.26 197.516Z"
        fill="#B08874"></path>
    <path fill-rule="evenodd" clip-rule="evenodd"
        d="M543.532 179.371C546.057 179.958 547.627 182.481 547.04 185.006L538.47 221.856C537.882 224.381 535.359 225.952 532.834 225.365C530.31 224.778 528.739 222.255 529.326 219.73L537.897 182.879C538.484 180.354 541.007 178.783 543.532 179.371Z"
        fill="#B08874"></path>
    <path fill-rule="evenodd" clip-rule="evenodd"
        d="M551.941 183.447C554.462 184.05 556.016 186.584 555.412 189.105L546.946 224.45C546.342 226.971 543.809 228.525 541.288 227.922C538.767 227.318 537.213 224.785 537.816 222.264L546.283 186.918C546.887 184.397 549.42 182.843 551.941 183.447Z"
        fill="#B08874"></path>
    <path fill-rule="evenodd" clip-rule="evenodd"
        d="M558.437 194.819C560.95 195.457 562.47 198.011 561.832 200.524L554.464 229.551C553.826 232.064 551.273 233.584 548.76 232.946C546.247 232.308 544.727 229.754 545.365 227.241L552.733 198.214C553.371 195.701 555.925 194.181 558.437 194.819Z"
        fill="#B08874"></path>
    <path
        d="M521.948 238.206L543.968 246.944C543.968 246.944 558.474 239.134 556.226 214.303L529.735 211.778L523.054 227.539L521.948 238.206Z"
        fill="#B08874"></path>
    <path
        d="M516.495 243.451C516.495 243.451 511.685 228.456 511.451 216.738C511.258 207.1 515.343 200.33 517.552 200.328C522.78 200.323 520.651 207.245 521.66 212.153C522.346 215.488 523.13 218.039 526.445 218.818L529.75 219.594L532.362 235.069L516.495 243.451Z"
        fill="#B08874"></path>
    <path
        d="M790 552.585V582.108H10V549.865C19.7598 543.469 37.9532 539.169 58.789 539.169C61.7335 539.169 64.6195 539.247 67.4372 539.412C69.241 532.012 80.9215 525.704 97.4185 522.408C101.825 518.216 109.596 514.677 119.473 512.269C121.657 508.544 126.386 505.171 132.947 502.45C137.276 498.794 144.209 495.684 152.857 493.461C156.923 490.078 163.221 487.162 171.05 484.998C171.021 484.705 170.992 484.403 170.992 484.111C170.992 473.483 191.262 464.669 217.88 462.953C217.841 462.554 217.812 462.163 217.812 461.764C217.812 451.477 231.978 442.712 251.829 439.339C251.78 438.851 251.751 438.364 251.751 437.866C251.751 434.308 252.97 430.924 255.164 427.892C261.082 419.673 274.098 413.969 289.211 413.969C292.974 413.969 296.611 414.33 300.033 414.983C291.317 407.7 286.51 399.022 287.378 390.16C289.201 371.605 315.292 358.677 347.535 359.223C358.251 346.07 383.513 338.426 412.002 341.234C445.094 344.49 471.185 360.724 474.324 378.898C501.741 379.581 523.503 389.994 523.503 402.757C523.503 403.8 523.347 404.833 523.055 405.837C530.162 407.954 536.09 410.829 540.244 414.242C544.475 417.694 546.884 421.672 546.884 425.913C546.884 427.765 546.416 429.55 545.548 431.275C557.267 435.663 564.755 442.332 564.755 449.81C564.755 451.526 564.356 453.193 563.605 454.802C579.458 458.604 590.008 465.322 590.008 472.976C590.008 474.536 589.569 476.047 588.74 477.5C589.813 478.68 590.788 479.879 591.665 481.098C598.871 483.467 604.506 486.519 607.831 489.99C617.912 493.617 624.474 498.648 625.361 504.264C633.727 507.237 639.713 511.167 642.112 515.593C655.001 518.46 664.644 523.218 668.398 528.863C670.455 528.775 672.542 528.726 674.657 528.726C705.799 528.726 731.042 538.34 731.042 550.206C731.042 550.235 731.032 550.274 731.032 550.304C738.481 548.929 746.846 548.149 755.68 548.149C768.589 548.149 780.494 549.806 790 552.585Z"
        fill="#7D55FF"></path>
    <path opacity="0.1"
        d="M540.244 414.242C526.067 424.401 489.398 447.597 458.88 440.294C420.153 431.022 398.274 436.872 290.01 432.397C275.093 431.782 263.714 430.183 255.164 427.892C261.082 419.673 274.098 413.969 289.211 413.969C292.974 413.969 296.611 414.33 300.033 414.983C291.317 407.7 286.51 399.022 287.378 390.16C289.201 371.605 315.292 358.677 347.535 359.223C358.25 346.07 383.513 338.426 412.002 341.234C445.094 344.49 471.185 360.724 474.324 378.898C501.741 379.581 523.503 389.994 523.503 402.757C523.503 403.8 523.347 404.833 523.055 405.837C530.162 407.954 536.09 410.829 540.244 414.242Z"
        fill="black"></path>
    <path d="M459.921 316.833H341.406V374.769H459.921V316.833Z" fill="#B5CDFB"></path>
    <path
        d="M275.284 426.786H328.538C336.735 426.786 343.379 420.141 343.379 411.945V411.945C343.379 403.748 336.735 397.104 328.538 397.104H275.284C267.088 397.104 260.443 403.748 260.443 411.945V411.945C260.443 420.141 267.088 426.786 275.284 426.786Z"
        fill="#B5CDFB"></path>
    <path
        d="M325.569 424.138C332.577 424.586 339.585 424.17 346.592 422.889V399.577C340.114 401.971 333.636 402.871 327.158 402.278C320.834 401.699 315.443 406.858 315.443 413.208V413.208C315.443 418.938 319.851 423.773 325.569 424.138Z"
        fill="#926D5A"></path>
    <path d="M492.301 332.937L442.796 345.801L425.224 400.595L501.001 374.405L492.301 332.937Z"
        fill="#B5CDFB"></path>
    <path d="M303.585 331.555L365.641 346.469L379.294 400.595L303.518 374.405L303.585 331.555Z"
        fill="#B5CDFB"></path>
    <path
        d="M455.592 344.011C419.881 348.246 382.869 348.406 344.402 344.011C340.999 344.011 338.24 341.327 338.24 338.017V320.879C338.24 317.569 340.999 314.885 344.402 314.885H455.592C458.995 314.885 461.754 317.569 461.754 320.879V338.017C461.754 341.327 458.995 344.011 455.592 344.011Z"
        fill="#C4B6FF"></path>
    <path fill-rule="evenodd" clip-rule="evenodd"
        d="M362.759 236.515C362.665 236.663 362.563 236.824 362.456 236.999C361.074 239.243 359.36 242.528 357.353 246.901C353.34 255.644 349.084 266.666 344.747 278.19C344.065 280.002 343.378 281.835 342.688 283.674C339.163 293.079 335.589 302.613 332.398 310.132C330.517 314.566 328.381 319.24 326.094 323.136C324.983 325.029 323.335 327.612 321.12 330.07C319.599 331.758 314.336 337.441 305.422 338.99L301.264 315.059L305.422 338.99C293.488 341.064 285.084 334.538 282.419 332.257C278.914 329.258 276.26 325.744 274.398 322.99C270.525 317.259 266.826 309.879 263.427 302.028C256.499 286.025 249.223 264.322 243.175 240.482L290.429 228.495C293.306 239.836 296.434 250.431 299.569 259.83C303.749 248.742 308.391 236.709 313.047 226.565C315.457 221.313 318.105 216.049 320.945 211.437C323.449 207.371 327.477 201.481 333.29 197.182C338.511 193.321 344.512 191.139 348.57 189.872C353.129 188.448 357.925 187.383 362.222 186.594C370.43 185.087 379.245 184.161 384.159 184.183L384.16 184.183C420.569 184.349 441.774 190.236 453.392 194.311C461.951 197.313 467.942 203.165 471.726 207.67C475.741 212.449 479.098 217.931 481.891 223.14C487.463 233.53 492.449 246.02 496.669 256.988C497.278 258.571 497.87 260.117 498.446 261.627C501.937 251.953 505.429 240.352 508.534 227.175L555.984 238.356C550.088 263.38 542.61 284.842 535.038 300.414C531.325 308.05 527.103 315.287 522.387 320.921C520.06 323.701 516.855 327.015 512.707 329.666C508.696 332.229 501.405 335.657 492.219 334.186C485.219 333.064 480.298 329.534 477.547 327.108C474.683 324.583 472.556 321.829 471.068 319.664C468.103 315.351 465.615 310.311 463.589 305.808C460.379 298.67 456.969 289.708 453.718 281.163C452.855 278.897 452.004 276.661 451.171 274.495C446.918 263.441 442.893 253.571 438.929 246.179C437.176 242.911 435.764 240.76 434.76 239.473C426.917 236.949 411.356 233.057 383.938 232.933C383.957 232.933 383.967 232.933 383.967 232.933C383.967 232.934 383.62 232.94 382.846 232.993C382.026 233.049 380.955 233.143 379.688 233.28C377.14 233.557 374.085 233.981 371.025 234.542C367.904 235.115 365.165 235.761 363.102 236.406C362.981 236.443 362.867 236.48 362.759 236.515ZM433.847 238.431C433.847 238.428 433.893 238.467 433.983 238.559C433.892 238.481 433.847 238.435 433.847 238.431ZM511.251 292.061C511.281 292.101 511.297 292.123 511.296 292.124C511.296 292.125 511.281 292.104 511.251 292.061ZM484.756 289.909C484.756 289.908 484.779 289.883 484.826 289.836C484.78 289.887 484.757 289.91 484.756 289.909ZM283.903 298.7C283.903 298.699 283.919 298.674 283.951 298.626C283.919 298.677 283.903 298.701 283.903 298.7ZM315.217 296.291C315.242 296.321 315.255 296.337 315.255 296.337C315.255 296.338 315.242 296.323 315.217 296.291Z"
        fill="#C4B6FF"></path>
    <path
        d="M420.966 115.957V89.3662H426.643C433.004 89.3662 438.16 95.9374 438.16 104.043L435.863 131.73L420.966 115.957Z"
        fill="#2D2620"></path>
    <path
        d="M365.123 131.73L361.833 104.043C361.833 95.9374 366.99 89.3662 373.351 89.3662H379.028V115.957L365.123 131.73Z"
        fill="#2D2620"></path>
    <path
        d="M417.756 178.788V188.151C417.756 194.626 410.104 199.876 400.662 199.876H399.332C389.89 199.876 382.238 194.626 382.238 188.151V178.925C387.54 180.986 393.573 182.453 399.995 182.453C406.317 182.453 412.383 180.917 417.756 178.788Z"
        fill="#926D5A"></path>
    <path
        d="M417.756 167.429V178.787C412.383 180.917 406.317 182.453 399.995 182.453C393.573 182.453 387.54 180.986 382.238 178.924V167.429C382.238 160.951 389.89 160.771 399.332 160.771H400.662C410.104 160.771 417.756 160.951 417.756 167.429Z"
        fill="#72594B"></path>
    <path
        d="M433.488 143.724C432.876 145.243 431.699 146.479 430.189 147.113C427.674 148.169 426.871 146.656 428.292 142.994L434.17 125.075C434.363 124.457 434.824 123.954 435.409 123.548C438.204 121.603 439.968 122.738 439.322 126.082C438.275 131.505 434.991 139.993 433.488 143.724Z"
        fill="#926D5A"></path>
    <path
        d="M366.506 143.724C367.118 145.243 368.295 146.479 369.805 147.113C372.32 148.169 373.123 146.656 371.702 142.994L365.824 125.075C365.631 124.457 365.17 123.954 364.586 123.548C361.79 121.603 360.026 122.738 360.672 126.082C361.719 131.505 365.003 139.993 366.506 143.724Z"
        fill="#926D5A"></path>
    <path
        d="M428.901 111.667V144.961C428.901 149.663 427.874 154.292 425.913 158.484C425.407 159.565 417.657 170.468 413.351 173.466C410.236 175.635 410.664 176.506 399.997 176.572C389.33 176.506 389.758 175.635 386.643 173.466C382.337 170.468 374.587 159.565 374.081 158.484C372.12 154.292 371.093 149.663 371.093 144.961V111.667C371.093 103.51 377.292 96.895 384.936 96.895H415.058C422.702 96.895 428.901 103.51 428.901 111.667Z"
        fill="#B08874"></path>
    <path
        d="M388.658 156.657C388.002 157.446 393.217 165.753 399.915 165.761C406.949 165.769 412.588 158.838 411.173 157.013L388.658 156.657Z"
        fill="white"></path>
    <path
        d="M407.626 147.684C407.01 147.085 406.22 146.701 405.377 146.53C404.96 146.445 404.404 146.297 403.781 146.04C403.048 145.738 401.972 141.039 401.141 136.803C400.903 135.586 399.168 135.569 398.909 136.782C398.029 140.912 396.866 145.771 396.213 146.04C395.59 146.297 395.034 146.445 394.617 146.53C393.775 146.701 392.985 147.085 392.368 147.684C391.813 148.224 391.394 148.915 391.763 149.616C392.558 151.126 395.92 150.172 396.623 151.364C397.326 152.556 399.997 152.556 399.997 152.556C399.997 152.556 402.668 152.556 403.371 151.364C404.074 150.172 407.436 151.126 408.231 149.616C408.6 148.915 408.181 148.224 407.626 147.684Z"
        fill="#926D5A"></path>
    <path
        d="M368.196 94.5205C368.196 88.6959 377.173 79.918 400.66 79.918C424.436 79.918 433.124 88.6959 433.124 94.5205C433.124 113.164 368.196 113.164 368.196 94.5205Z"
        fill="#2D2620"></path>
    <path
        d="M375.441 100.979V110.793C375.441 111.725 375.187 112.639 374.706 113.438L369.681 121.791L366.87 109.033L371.819 95.7344L375.441 100.979Z"
        fill="#2D2620"></path>
    <path
        d="M424.553 100.979V110.793C424.553 111.725 424.807 112.639 425.288 113.438L430.313 121.791L433.124 109.033L428.175 95.7344L424.553 100.979Z"
        fill="#2D2620"></path>
    <path
        d="M381.746 148.574C390.997 148.574 398.496 141.074 398.496 131.823C398.496 122.572 390.997 115.073 381.746 115.073C372.495 115.073 364.995 122.572 364.995 131.823C364.995 141.074 372.495 148.574 381.746 148.574Z"
        fill="#7D55FF"></path>
    <path
        d="M418.249 148.574C427.5 148.574 434.999 141.074 434.999 131.823C434.999 122.572 427.5 115.073 418.249 115.073C408.998 115.073 401.499 122.572 401.499 131.823C401.499 141.074 408.998 148.574 418.249 148.574Z"
        fill="#7D55FF"></path>
    <path fill-rule="evenodd" clip-rule="evenodd"
        d="M381.746 117.346C373.75 117.346 367.269 123.827 367.269 131.823C367.269 139.818 373.75 146.299 381.746 146.299C389.741 146.299 396.222 139.818 396.222 131.823C396.222 123.827 389.741 117.346 381.746 117.346ZM366.294 131.823C366.294 123.289 373.212 116.371 381.746 116.371C390.279 116.371 397.197 123.289 397.197 131.823C397.197 140.356 390.279 147.274 381.746 147.274C373.212 147.274 366.294 140.356 366.294 131.823Z"
        fill="#C4B6FF"></path>
    <path d="M379.389 121.791H378.42V142.612H379.389V121.791Z" fill="#C4B6FF"></path>
    <path d="M382.133 138.859H381.165V142.612H382.133V138.859Z" fill="#C4B6FF"></path>
    <path d="M382.133 121.791H381.165V124.757H382.133V121.791Z" fill="#C4B6FF"></path>
    <path
        d="M384.233 123.756C387.343 123.756 389.283 125.497 389.283 128.109C389.283 129.851 388.413 131.045 387.243 131.692C389.034 132.338 390.129 133.856 390.129 135.846C390.129 138.782 387.89 140.647 384.009 140.647H375.352V138.533H377.417V125.87H375.352V123.756H384.233ZM383.86 130.796C385.676 130.796 386.696 129.925 386.696 128.283C386.696 126.617 385.651 125.87 383.586 125.87H379.955V130.796H383.86ZM383.984 138.533C386.323 138.533 387.517 137.612 387.517 135.672C387.517 133.657 385.975 132.911 384.009 132.911H379.955V138.533H383.984Z"
        fill="#C4B6FF"></path>
    <path fill-rule="evenodd" clip-rule="evenodd"
        d="M418.249 117.346C410.254 117.346 403.772 123.827 403.772 131.823C403.772 139.818 410.254 146.299 418.249 146.299C426.244 146.299 432.725 139.818 432.725 131.823C432.725 123.827 426.244 117.346 418.249 117.346ZM402.797 131.823C402.797 123.289 409.715 116.371 418.249 116.371C426.782 116.371 433.7 123.289 433.7 131.823C433.7 140.356 426.782 147.274 418.249 147.274C409.715 147.274 402.797 140.356 402.797 131.823Z"
        fill="#C4B6FF"></path>
    <path d="M415.892 121.791H414.923V142.612H415.892V121.791Z" fill="#C4B6FF"></path>
    <path d="M418.636 138.859H417.667V142.612H418.636V138.859Z" fill="#C4B6FF"></path>
    <path d="M418.636 121.791H417.667V124.757H418.636V121.791Z" fill="#C4B6FF"></path>
    <path
        d="M420.736 123.756C423.846 123.756 425.786 125.497 425.786 128.109C425.786 129.851 424.916 131.045 423.746 131.692C425.538 132.338 426.632 133.856 426.632 135.846C426.632 138.782 424.393 140.647 420.512 140.647H411.855V138.533H413.92V125.87H411.855V123.756H420.736ZM420.363 130.796C422.179 130.796 423.199 129.925 423.199 128.283C423.199 126.617 422.154 125.87 420.09 125.87H416.458V130.796H420.363ZM420.488 138.533C422.826 138.533 424.02 137.612 424.02 135.672C424.02 133.657 422.478 132.911 420.512 132.911H416.458V138.533H420.488Z"
        fill="#C4B6FF"></path>
    <path
        d="M186.111 511.676C203.588 511.676 217.756 497.508 217.756 480.031C217.756 462.555 203.588 448.387 186.111 448.387C168.635 448.387 154.467 462.555 154.467 480.031C154.467 497.508 168.635 511.676 186.111 511.676Z"
        fill="#7D55FF"></path>
    <path fill-rule="evenodd" clip-rule="evenodd"
        d="M186.111 452.438C170.872 452.438 158.519 464.792 158.519 480.031C158.519 495.27 170.872 507.624 186.111 507.624C201.351 507.624 213.704 495.27 213.704 480.031C213.704 464.792 201.351 452.438 186.111 452.438ZM157.165 480.031C157.165 464.045 170.125 451.085 186.111 451.085C202.098 451.085 215.058 464.045 215.058 480.031C215.058 496.018 202.098 508.977 186.111 508.977C170.125 508.977 157.165 496.018 157.165 480.031Z"
        fill="#C4B6FF"></path>
    <path d="M183.522 460.736L181.701 460.558L177.877 499.707L179.699 499.885L183.522 460.736Z"
        fill="#C4B6FF"></path>
    <path d="M185.549 493.332L183.727 493.154L183.038 500.21L184.859 500.388L185.549 493.332Z"
        fill="#C4B6FF"></path>
    <path d="M188.683 461.24L186.861 461.062L186.317 466.64L188.138 466.818L188.683 461.24Z"
        fill="#C4B6FF"></path>
    <path
        d="M192.27 465.32C198.117 465.891 201.446 469.522 200.966 474.433C200.646 477.707 198.79 479.793 196.473 480.794C199.722 482.339 201.501 485.393 201.136 489.135C200.596 494.654 196.044 497.751 188.747 497.039L172.47 495.449L172.859 491.473L176.741 491.852L179.066 468.044L175.184 467.665L175.572 463.689L192.27 465.32ZM190.276 478.489C193.69 478.822 195.768 477.372 196.069 474.285C196.376 471.152 194.548 469.556 190.666 469.177L183.837 468.51L182.933 477.772L190.276 478.489ZM189.089 493.058C193.486 493.488 195.9 491.976 196.256 488.328C196.626 484.539 193.863 482.853 190.168 482.492L182.544 481.747L181.512 492.318L189.089 493.058Z"
        fill="#C4B6FF"></path>
    <path
        d="M66.4896 80.2884C83.9662 80.2884 98.1338 66.1208 98.1338 48.6442C98.1338 31.1676 83.9662 17 66.4896 17C49.013 17 34.8455 31.1676 34.8455 48.6442C34.8455 66.1208 49.013 80.2884 66.4896 80.2884Z"
        fill="#7D55FF"></path>
    <path fill-rule="evenodd" clip-rule="evenodd"
        d="M66.4894 21.0511C51.2503 21.0511 38.8965 33.4048 38.8965 48.644C38.8965 63.8831 51.2503 76.2369 66.4894 76.2369C81.7286 76.2369 94.0823 63.8831 94.0823 48.644C94.0823 33.4048 81.7286 21.0511 66.4894 21.0511ZM37.5432 48.644C37.5432 32.6574 50.5029 19.6978 66.4894 19.6978C82.476 19.6978 95.4356 32.6574 95.4356 48.644C95.4356 64.6305 82.476 77.5902 66.4894 77.5902C50.5029 77.5902 37.5432 64.6305 37.5432 48.644Z"
        fill="#C4B6FF"></path>
    <path d="M70.5975 29.6138L68.9441 28.8286L52.0701 64.3608L53.7236 65.146L70.5975 29.6138Z"
        fill="#C4B6FF"></path>
    <path d="M61.4486 60.9664L59.7952 60.1812L56.7539 66.5853L58.4073 67.3705L61.4486 60.9664Z"
        fill="#C4B6FF"></path>
    <path d="M75.2814 31.8379L73.6279 31.0527L71.2238 36.1153L72.8772 36.9005L75.2814 31.8379Z"
        fill="#C4B6FF"></path>
    <path
        d="M77.2722 36.8934C82.5788 39.4135 84.4789 43.9577 82.362 48.4152C80.9508 51.3869 78.4973 52.719 75.9778 52.8752C78.5102 55.4306 79.1484 58.9072 77.5355 62.3035C75.1566 67.3129 69.8238 68.6824 63.2012 65.5374L48.428 58.5217L50.1416 54.9132L53.6652 56.5865L63.9269 34.9781L60.4033 33.3048L62.1169 29.6963L77.2722 36.8934ZM70.93 48.6051C74.0291 50.0768 76.4752 49.4176 77.8058 46.6157C79.1566 43.7714 77.9784 41.6511 74.4548 39.9777L68.257 37.0345L64.2653 45.4401L70.93 48.6051ZM64.8724 61.9087C68.8629 63.8038 71.6466 63.2008 73.2191 59.8894C74.8521 56.4508 72.8249 53.9272 69.4711 52.3346L62.5516 49.0486L57.9954 58.6429L64.8724 61.9087Z"
        fill="#C4B6FF"></path>
    <path
        d="M140.041 310.101C173.948 310.101 201.435 282.614 201.435 248.707C201.435 214.8 173.948 187.313 140.041 187.313C106.134 187.313 78.6467 214.8 78.6467 248.707C78.6467 282.614 106.134 310.101 140.041 310.101Z"
        fill="#7D55FF"></path>
    <path fill-rule="evenodd" clip-rule="evenodd"
        d="M140.041 195.173C110.475 195.173 86.5069 219.141 86.5069 248.708C86.5069 278.274 110.475 302.242 140.041 302.242C169.607 302.242 193.575 278.274 193.575 248.708C193.575 219.141 169.607 195.173 140.041 195.173ZM83.8813 248.708C83.8813 217.691 109.025 192.548 140.041 192.548C171.057 192.548 196.201 217.691 196.201 248.708C196.201 279.724 171.057 304.867 140.041 304.867C109.025 304.867 83.8813 279.724 83.8813 248.708Z"
        fill="#C4B6FF"></path>
    <path d="M121.791 215.637L118.372 216.596L138.987 290.075L142.407 289.116L121.791 215.637Z"
        fill="#C4B6FF"></path>
    <path d="M148.377 273.155L144.958 274.114L148.673 287.358L152.093 286.398L148.377 273.155Z"
        fill="#C4B6FF"></path>
    <path d="M131.477 212.92L128.058 213.879L130.995 224.348L134.414 223.389L131.477 212.92Z"
        fill="#C4B6FF"></path>
    <path
        d="M140.832 217.776C151.806 214.697 160.378 218.921 162.964 228.139C164.688 234.284 162.798 239.36 159.312 242.8C166.273 243.309 171.639 247.581 173.609 254.604C176.516 264.963 170.462 273.764 156.767 277.607L126.216 286.178L124.123 278.716L131.409 276.672L118.872 231.986L111.586 234.031L109.492 226.569L140.832 217.776ZM146.486 242.99C152.895 241.192 155.632 237.109 154.006 231.315C152.356 225.433 147.93 223.834 140.643 225.878L127.827 229.474L132.704 246.856L146.486 242.99ZM154.585 270.169C162.837 267.854 166.14 263.423 164.219 256.576C162.224 249.465 156.042 248.358 149.106 250.304L134.797 254.319L140.364 274.159L154.585 270.169Z"
        fill="#C4B6FF"></path>
    <path
        d="M703.293 216.272C737.2 216.272 764.687 188.785 764.687 154.878C764.687 120.971 737.2 93.4839 703.293 93.4839C669.386 93.4839 641.899 120.971 641.899 154.878C641.899 188.785 669.386 216.272 703.293 216.272Z"
        fill="#7D55FF"></path>
    <path fill-rule="evenodd" clip-rule="evenodd"
        d="M703.293 101.344C673.727 101.344 649.759 125.312 649.759 154.878C649.759 184.444 673.727 208.412 703.293 208.412C732.859 208.412 756.827 184.444 756.827 154.878C756.827 125.312 732.859 101.344 703.293 101.344ZM647.134 154.878C647.134 123.862 672.277 98.7183 703.293 98.7183C734.309 98.7183 759.453 123.862 759.453 154.878C759.453 185.894 734.309 211.038 703.293 211.038C672.277 211.038 647.134 185.894 647.134 154.878Z"
        fill="#C4B6FF"></path>
    <path d="M706.005 117.204L702.615 116.146L679.872 188.994L683.262 190.052L706.005 117.204Z"
        fill="#C4B6FF"></path>
    <path d="M696.964 179.921L693.574 178.862L689.475 191.992L692.865 193.051L696.964 179.921Z"
        fill="#C4B6FF"></path>
    <path d="M715.608 120.202L712.218 119.144L708.978 129.523L712.368 130.581L715.608 120.202Z"
        fill="#C4B6FF"></path>
    <path
        d="M720.808 129.37C731.688 132.767 736.574 140.979 733.721 150.118C731.819 156.21 727.469 159.437 722.671 160.423C728.232 164.642 730.404 171.147 728.23 178.11C725.024 188.38 715.152 192.463 701.575 188.224L671.286 178.768L673.596 171.37L680.82 173.625L694.651 129.323L687.427 127.068L689.736 119.67L720.808 129.37ZM711.813 153.594C718.166 155.578 722.686 153.645 724.479 147.901C726.3 142.07 723.459 138.317 716.235 136.062L703.529 132.095L698.148 149.328L711.813 153.594ZM703.797 180.798C711.979 183.353 717.162 181.437 719.281 174.648C721.482 167.598 716.901 163.302 710.025 161.155L695.839 156.726L689.698 176.397L703.797 180.798Z"
        fill="#C4B6FF"></path>
    <path
        d="M633.59 292.259C651.644 292.259 666.28 277.623 666.28 259.569C666.28 241.515 651.644 226.879 633.59 226.879C615.536 226.879 600.9 241.515 600.9 259.569C600.9 277.623 615.536 292.259 633.59 292.259Z"
        fill="#7D55FF"></path>
    <path fill-rule="evenodd" clip-rule="evenodd"
        d="M633.59 231.064C617.847 231.064 605.085 243.826 605.085 259.569C605.085 275.311 617.847 288.074 633.59 288.074C649.333 288.074 662.095 275.311 662.095 259.569C662.095 243.826 649.333 231.064 633.59 231.064ZM603.687 259.569C603.687 243.054 617.075 229.666 633.59 229.666C650.105 229.666 663.493 243.054 663.493 259.569C663.493 276.084 650.105 289.472 633.59 289.472C617.075 289.472 603.687 276.084 603.687 259.569Z"
        fill="#C4B6FF"></path>
    <path d="M640.46 240.667L638.877 239.631L616.632 273.637L618.214 274.672L640.46 240.667Z"
        fill="#C4B6FF"></path>
    <path d="M626.706 271.476L625.124 270.44L621.114 276.569L622.697 277.605L626.706 271.476Z"
        fill="#C4B6FF"></path>
    <path d="M644.942 243.599L643.36 242.564L640.19 247.409L641.773 248.444L644.942 243.599Z"
        fill="#C4B6FF"></path>
    <path
        d="M646.272 249.052C651.35 252.374 652.659 257.291 649.868 261.557C648.008 264.401 645.31 265.421 642.709 265.228C644.944 268.198 645.11 271.846 642.984 275.096C639.847 279.891 634.197 280.546 627.859 276.399L613.721 267.15L615.98 263.697L619.352 265.903L632.881 245.223L629.508 243.017L631.768 239.563L646.272 249.052ZM638.141 260.151C641.107 262.091 643.703 261.759 645.457 259.077C647.238 256.355 646.328 254.02 642.956 251.814L637.025 247.934L631.762 255.978L638.141 260.151ZM630.078 272.919C633.897 275.418 636.831 275.19 638.904 272.021C641.057 268.73 639.335 265.864 636.125 263.764L629.503 259.432L623.496 268.614L630.078 272.919Z"
        fill="#C4B6FF"></path>
    <path
        d="M485.055 92.1097C501.234 92.1097 514.35 78.9939 514.35 62.8146C514.35 46.6354 501.234 33.5195 485.055 33.5195C468.876 33.5195 455.76 46.6354 455.76 62.8146C455.76 78.9939 468.876 92.1097 485.055 92.1097Z"
        fill="#7D55FF"></path>
    <path fill-rule="evenodd" clip-rule="evenodd"
        d="M485.055 37.2699C470.947 37.2699 459.51 48.7066 459.51 62.8145C459.51 76.9224 470.947 88.3591 485.055 88.3591C499.163 88.3591 510.599 76.9224 510.599 62.8145C510.599 48.7066 499.163 37.2699 485.055 37.2699ZM458.257 62.8145C458.257 48.0147 470.255 36.0171 485.055 36.0171C499.855 36.0171 511.852 48.0147 511.852 62.8145C511.852 77.6143 499.855 89.6119 485.055 89.6119C470.255 89.6119 458.257 77.6143 458.257 62.8145Z"
        fill="#C4B6FF"></path>
    <path d="M476.347 47.0344L474.715 47.4922L484.552 82.5536L486.184 82.0959L476.347 47.0344Z"
        fill="#C4B6FF"></path>
    <path d="M489.032 74.4802L487.401 74.938L489.174 81.2573L490.805 80.7996L489.032 74.4802Z"
        fill="#C4B6FF"></path>
    <path d="M480.968 45.738L479.337 46.1958L480.738 51.1913L482.37 50.7335L480.968 45.738Z"
        fill="#C4B6FF"></path>
    <path
        d="M485.433 48.055C490.669 46.5859 494.759 48.6015 495.993 52.9999C496.816 55.9322 495.914 58.3543 494.25 59.9959C497.572 60.2388 500.132 62.277 501.072 65.6282C502.459 70.5712 499.571 74.7708 493.036 76.6043L478.458 80.6942L477.459 77.1335L480.936 76.158L474.954 54.8359L471.477 55.8114L470.478 52.2507L485.433 48.055ZM488.13 60.0862C491.188 59.2283 492.494 57.2802 491.719 54.5155C490.931 51.7088 488.819 50.9457 485.342 51.9212L479.227 53.6371L481.554 61.9314L488.13 60.0862ZM491.995 73.0553C495.933 71.9506 497.508 69.8365 496.592 66.569C495.64 63.1759 492.69 62.6479 489.381 63.5764L482.553 65.492L485.209 74.9592L491.995 73.0553Z"
        fill="#C4B6FF"></path>
    <path
        d="M659.768 506.983C675.947 506.983 689.063 493.867 689.063 477.688C689.063 461.508 675.947 448.393 659.768 448.393C643.589 448.393 630.473 461.508 630.473 477.688C630.473 493.867 643.589 506.983 659.768 506.983Z"
        fill="#7D55FF"></path>
    <path fill-rule="evenodd" clip-rule="evenodd"
        d="M659.768 452.143C645.66 452.143 634.223 463.58 634.223 477.688C634.223 491.795 645.66 503.232 659.768 503.232C673.875 503.232 685.312 491.795 685.312 477.688C685.312 463.58 673.875 452.143 659.768 452.143ZM632.97 477.688C632.97 462.888 644.968 450.89 659.768 450.89C674.567 450.89 686.565 462.888 686.565 477.688C686.565 492.487 674.567 504.485 659.768 504.485C644.968 504.485 632.97 492.487 632.97 477.688Z"
        fill="#C4B6FF"></path>
    <path d="M661.01 459.708L659.391 459.208L648.64 493.999L650.259 494.5L661.01 459.708Z"
        fill="#C4B6FF"></path>
    <path d="M656.783 489.646L655.164 489.146L653.226 495.417L654.845 495.917L656.783 489.646Z"
        fill="#C4B6FF"></path>
    <path d="M665.596 461.125L663.977 460.625L662.445 465.582L664.064 466.082L665.596 461.125Z"
        fill="#C4B6FF"></path>
    <path
        d="M668.09 465.492C673.286 467.098 675.629 471.01 674.28 475.375C673.381 478.284 671.31 479.83 669.022 480.307C671.681 482.313 672.726 485.414 671.699 488.739C670.183 493.644 665.478 495.606 658.994 493.602L644.528 489.132L645.62 485.598L649.07 486.664L655.609 465.506L652.158 464.44L653.25 460.907L668.09 465.492ZM663.831 477.064C666.866 478.001 669.019 477.073 669.867 474.33C670.728 471.544 669.367 469.758 665.917 468.692L659.849 466.816L657.305 475.047L663.831 477.064ZM660.044 490.056C663.951 491.263 666.422 490.342 667.424 487.099C668.464 483.732 666.273 481.689 662.989 480.674L656.213 478.58L653.31 487.975L660.044 490.056Z"
        fill="#C4B6FF"></path>
    <path
        d="M293.394 305.851C298.223 294.494 299.403 284.125 296.03 282.691C292.656 281.256 286.007 289.3 281.178 300.656C276.349 312.013 275.169 322.382 278.542 323.817C281.916 325.251 288.565 317.208 293.394 305.851Z"
        fill="#7D55FF"></path>
    <path fill-rule="evenodd" clip-rule="evenodd"
        d="M278.47 319.169C278.714 320.317 279.156 320.927 279.677 321.149C280.198 321.37 280.943 321.265 281.94 320.645C282.922 320.034 284.04 318.986 285.223 317.555C287.584 314.699 290.124 310.412 292.268 305.372C294.411 300.332 295.736 295.529 296.155 291.847C296.365 290.002 296.344 288.469 296.102 287.338C295.858 286.191 295.416 285.581 294.895 285.359C294.374 285.138 293.629 285.243 292.632 285.863C291.651 286.473 290.532 287.522 289.349 288.953C286.988 291.809 284.448 296.096 282.304 301.136C280.161 306.176 278.836 310.979 278.417 314.661C278.207 316.506 278.228 318.039 278.47 319.169ZM277.391 314.544C277.824 310.738 279.183 305.837 281.354 300.732C283.525 295.626 286.112 291.247 288.553 288.295C289.771 286.821 290.972 285.679 292.087 284.986C293.186 284.302 294.313 283.99 295.299 284.409C296.285 284.828 296.842 285.856 297.112 287.123C297.386 288.407 297.397 290.064 297.181 291.963C296.748 295.77 295.389 300.671 293.218 305.776C291.047 310.882 288.46 315.261 286.019 318.213C284.801 319.687 283.6 320.829 282.485 321.522C281.386 322.206 280.259 322.518 279.273 322.099C278.287 321.68 277.73 320.651 277.46 319.385C277.186 318.101 277.175 316.444 277.391 314.544Z"
        fill="#C4B6FF"></path>
    <path
        d="M735.557 380.398C738.585 378.331 735.399 368.394 728.442 358.201C721.484 348.009 713.39 341.422 710.362 343.488C707.335 345.555 710.52 355.493 717.478 365.685C724.435 375.878 732.53 382.465 735.557 380.398Z"
        fill="#7D55FF"></path>
    <path fill-rule="evenodd" clip-rule="evenodd"
        d="M712.031 352.492C713.162 356.021 715.401 360.472 718.489 364.996C721.577 369.519 724.906 373.226 727.781 375.565C729.221 376.737 730.523 377.546 731.605 377.953C732.703 378.366 733.455 378.323 733.923 378.004C734.39 377.685 734.704 377 734.72 375.827C734.735 374.671 734.456 373.163 733.889 371.395C732.758 367.866 730.519 363.415 727.431 358.892C724.343 354.368 721.014 350.662 718.139 348.322C716.699 347.151 715.397 346.341 714.315 345.935C713.216 345.522 712.464 345.564 711.997 345.883C711.529 346.202 711.216 346.887 711.2 348.061C711.185 349.217 711.464 350.724 712.031 352.492ZM710.168 348.047C710.185 346.752 710.53 345.634 711.415 345.03C712.3 344.426 713.466 344.512 714.678 344.968C715.907 345.43 717.308 346.315 718.791 347.521C721.762 349.939 725.156 353.728 728.284 358.31C731.411 362.892 733.703 367.432 734.872 371.08C735.456 372.901 735.77 374.528 735.752 375.841C735.735 377.136 735.39 378.253 734.505 378.857C733.62 379.461 732.454 379.375 731.242 378.919C730.013 378.458 728.612 377.573 727.129 376.366C724.158 373.948 720.764 370.16 717.636 365.578C714.508 360.996 712.217 356.455 711.047 352.807C710.464 350.987 710.15 349.359 710.168 348.047Z"
        fill="#C4B6FF"></path>
    <path
        d="M83.7919 520.582C86.8195 518.516 83.6337 508.578 76.6762 498.385C69.7188 488.193 61.6243 481.606 58.5967 483.672C55.5691 485.739 58.7549 495.677 65.7123 505.869C72.6698 516.062 80.7643 522.649 83.7919 520.582Z"
        fill="#7D55FF"></path>
    <path fill-rule="evenodd" clip-rule="evenodd"
        d="M60.2651 492.675C61.3964 496.204 63.6356 500.655 66.7234 505.179C69.8111 509.702 73.1406 513.409 76.0151 515.748C77.455 516.92 78.7573 517.729 79.8394 518.136C80.9378 518.549 81.6898 518.506 82.1573 518.187C82.6248 517.868 82.9383 517.183 82.9539 516.01C82.9693 514.854 82.6901 513.346 82.1234 511.579C80.9921 508.049 78.7529 503.598 75.6651 499.075C72.5774 494.551 69.2479 490.845 66.3734 488.506C64.9335 487.334 63.6312 486.524 62.5491 486.118C61.4506 485.705 60.6987 485.747 60.2312 486.066C59.7637 486.386 59.4502 487.07 59.4345 488.244C59.4192 489.4 59.6984 490.907 60.2651 492.675ZM58.402 488.23C58.4192 486.935 58.7641 485.818 59.649 485.214C60.5339 484.61 61.7001 484.695 62.9125 485.151C64.1411 485.613 65.5423 486.498 67.0252 487.705C69.9965 490.122 73.3904 493.911 76.5181 498.493C79.6458 503.075 81.9374 507.615 83.1068 511.263C83.6904 513.084 84.004 514.711 83.9865 516.024C83.9693 517.319 83.6244 518.436 82.7395 519.04C81.8546 519.644 80.6883 519.558 79.476 519.103C78.2473 518.641 76.8462 517.756 75.3633 516.549C72.392 514.131 68.9981 510.343 65.8704 505.761C62.7427 501.179 60.4511 496.638 59.2817 492.99C58.6981 491.17 58.3845 489.543 58.402 488.23Z"
        fill="#C4B6FF"></path>
    <path
        d="M290.014 128.35C298.701 128.35 305.744 121.308 305.744 112.621C305.744 103.933 298.701 96.8911 290.014 96.8911C281.327 96.8911 274.285 103.933 274.285 112.621C274.285 121.308 281.327 128.35 290.014 128.35Z"
        fill="#7D55FF"></path>
    <path fill-rule="evenodd" clip-rule="evenodd"
        d="M290.014 98.9046C282.439 98.9046 276.298 105.045 276.298 112.62C276.298 120.195 282.439 126.336 290.014 126.336C297.589 126.336 303.73 120.195 303.73 112.62C303.73 105.045 297.589 98.9046 290.014 98.9046ZM275.626 112.62C275.626 104.674 282.068 98.2319 290.014 98.2319C297.961 98.2319 304.403 104.674 304.403 112.62C304.403 120.567 297.961 127.009 290.014 127.009C282.068 127.009 275.626 120.567 275.626 112.62Z"
        fill="#C4B6FF"></path>
    <path
        d="M530.507 295.4C539.194 295.4 546.237 288.357 546.237 279.67C546.237 270.983 539.194 263.94 530.507 263.94C521.82 263.94 514.778 270.983 514.778 279.67C514.778 288.357 521.82 295.4 530.507 295.4Z"
        fill="#7D55FF"></path>
    <path fill-rule="evenodd" clip-rule="evenodd"
        d="M530.507 265.954C522.932 265.954 516.792 272.095 516.792 279.67C516.792 287.245 522.932 293.386 530.507 293.386C538.082 293.386 544.223 287.245 544.223 279.67C544.223 272.095 538.082 265.954 530.507 265.954ZM516.119 279.67C516.119 271.724 522.561 265.282 530.507 265.282C538.454 265.282 544.896 271.724 544.896 279.67C544.896 287.617 538.454 294.059 530.507 294.059C522.561 294.059 516.119 287.617 516.119 279.67Z"
        fill="#C4B6FF"></path>
    <path
        d="M708.908 56.7243C717.595 56.7243 724.637 49.6819 724.637 40.9947C724.637 32.3075 717.595 25.2651 708.908 25.2651C700.22 25.2651 693.178 32.3075 693.178 40.9947C693.178 49.6819 700.22 56.7243 708.908 56.7243Z"
        fill="#7D55FF"></path>
    <path fill-rule="evenodd" clip-rule="evenodd"
        d="M708.907 27.2791C701.332 27.2791 695.192 33.4199 695.192 40.9949C695.192 48.5699 701.332 54.7107 708.907 54.7107C716.483 54.7107 722.623 48.5699 722.623 40.9949C722.623 33.4199 716.483 27.2791 708.907 27.2791ZM694.519 40.9949C694.519 33.0484 700.961 26.6064 708.907 26.6064C716.854 26.6064 723.296 33.0484 723.296 40.9949C723.296 48.9415 716.854 55.3834 708.907 55.3834C700.961 55.3834 694.519 48.9415 694.519 40.9949Z"
        fill="#C4B6FF"></path>
    <path
        d="M71.1942 368.168C79.8814 368.168 86.9238 361.125 86.9238 352.438C86.9238 343.751 79.8814 336.708 71.1942 336.708C62.507 336.708 55.4646 343.751 55.4646 352.438C55.4646 361.125 62.507 368.168 71.1942 368.168Z"
        fill="#7D55FF"></path>
    <path fill-rule="evenodd" clip-rule="evenodd"
        d="M71.1941 338.722C63.6191 338.722 57.4784 344.863 57.4784 352.438C57.4784 360.013 63.6191 366.154 71.1941 366.154C78.7692 366.154 84.9099 360.013 84.9099 352.438C84.9099 344.863 78.7692 338.722 71.1941 338.722ZM56.8057 352.438C56.8057 344.492 63.2476 338.05 71.1941 338.05C79.1407 338.05 85.5826 344.492 85.5826 352.438C85.5826 360.385 79.1407 366.827 71.1941 366.827C63.2476 366.827 56.8057 360.385 56.8057 352.438Z"
        fill="#C4B6FF"></path>
    <path
        d="M430.617 342.029H371.843C352.379 342.029 336.241 327.364 334.918 308.475L328.531 217.312H471.462L467.595 307.528C466.768 326.81 450.457 342.029 430.617 342.029Z"
        fill="#C4B6FF"></path>
    <path
        d="M455.406 500.602C456.516 500.613 457.62 500.621 458.722 500.565C459.823 500.539 460.922 500.483 462.015 500.38C464.199 500.177 466.371 499.887 468.48 499.356C470.588 498.84 472.648 498.107 474.51 497.012C476.382 495.934 477.987 494.407 479.179 492.531C478.765 493.564 478.155 494.517 477.447 495.397C476.716 496.261 475.838 496.991 474.913 497.644C473.048 498.951 470.887 499.749 468.713 500.302C466.524 500.827 464.287 501.099 462.054 501.125C459.823 501.158 457.589 501.031 455.406 500.602Z"
        fill="#C4B6FF"></path>
    <path
        d="M504.568 428.887C505.678 428.899 506.782 428.907 507.884 428.851C508.985 428.825 510.084 428.768 511.177 428.665C513.361 428.463 515.533 428.172 517.642 427.642C519.75 427.126 521.81 426.392 523.672 425.298C525.544 424.219 527.149 422.693 528.342 420.817C527.927 421.849 527.317 422.803 526.609 423.683C525.878 424.547 525 425.277 524.075 425.93C522.21 427.236 520.049 428.034 517.875 428.588C515.686 429.113 513.449 429.384 511.216 429.411C508.985 429.444 506.751 429.316 504.568 428.887Z"
        fill="#C4B6FF"></path>
    <path
        d="M586.459 561.546C587.569 561.558 588.673 561.566 589.775 561.51C590.876 561.484 591.975 561.427 593.068 561.325C595.252 561.122 597.424 560.831 599.533 560.301C601.641 559.785 603.701 559.051 605.563 557.957C607.435 556.879 609.04 555.352 610.232 553.476C609.818 554.509 609.208 555.462 608.5 556.342C607.768 557.206 606.891 557.936 605.966 558.589C604.101 559.895 601.94 560.693 599.766 561.247C597.577 561.772 595.34 562.044 593.107 562.07C590.876 562.103 588.642 561.975 586.459 561.546Z"
        fill="#C4B6FF"></path>
    <path
        d="M447.689 555.186C448.799 555.197 449.903 555.205 451.005 555.149C452.106 555.123 453.205 555.067 454.298 554.964C456.482 554.761 458.654 554.471 460.763 553.94C462.871 553.424 464.931 552.691 466.793 551.596C468.665 550.518 470.27 548.991 471.462 547.115C471.048 548.148 470.438 549.101 469.73 549.981C468.998 550.845 468.121 551.575 467.196 552.228C465.331 553.535 463.17 554.333 460.996 554.886C458.807 555.411 456.57 555.683 454.337 555.709C452.106 555.742 449.872 555.615 447.689 555.186Z"
        fill="#C4B6FF"></path>
    <path
        d="M414.745 472.439C415.856 472.45 416.959 472.458 418.061 472.402C419.162 472.376 420.261 472.32 421.354 472.217C423.538 472.014 425.71 471.724 427.819 471.193C429.927 470.677 431.987 469.943 433.849 468.849C435.721 467.771 437.326 466.244 438.519 464.368C438.104 465.401 437.494 466.354 436.786 467.234C436.055 468.098 435.177 468.828 434.252 469.481C432.387 470.788 430.226 471.585 428.052 472.139C425.863 472.664 423.626 472.936 421.393 472.962C419.162 472.995 416.928 472.868 414.745 472.439Z"
        fill="#C4B6FF"></path>
    <path
        d="M374.809 533.223C375.919 533.235 377.023 533.243 378.125 533.187C379.226 533.161 380.325 533.104 381.418 533.001C383.602 532.799 385.774 532.508 387.883 531.978C389.991 531.462 392.051 530.728 393.913 529.634C395.785 528.555 397.39 527.029 398.583 525.153C398.168 526.185 397.558 527.139 396.85 528.019C396.119 528.883 395.241 529.613 394.316 530.266C392.451 531.572 390.29 532.37 388.116 532.924C385.927 533.449 383.69 533.72 381.457 533.747C379.226 533.78 376.992 533.652 374.809 533.223Z"
        fill="#C4B6FF"></path>
    <path
        d="M320.45 573.937C321.56 573.948 322.663 573.956 323.766 573.9C324.867 573.874 325.966 573.818 327.059 573.715C329.242 573.512 331.414 573.222 333.524 572.691C335.631 572.175 337.692 571.442 339.553 570.347C341.426 569.269 343.031 567.742 344.223 565.866C343.808 566.899 343.199 567.852 342.49 568.732C341.759 569.596 340.882 570.326 339.957 570.979C338.091 572.286 335.931 573.083 333.757 573.637C331.567 574.162 329.331 574.434 327.098 574.46C324.867 574.493 322.633 574.366 320.45 573.937Z"
        fill="#C4B6FF"></path>
    <path
        d="M266.241 515.607C267.351 515.618 268.455 515.626 269.557 515.57C270.658 515.544 271.757 515.488 272.85 515.385C275.034 515.182 277.206 514.891 279.315 514.361C281.423 513.845 283.483 513.111 285.345 512.017C287.217 510.939 288.822 509.412 290.014 507.536C289.6 508.569 288.99 509.522 288.282 510.402C287.55 511.266 286.673 511.996 285.748 512.649C283.883 513.956 281.722 514.753 279.548 515.307C277.359 515.832 275.122 516.104 272.889 516.13C270.658 516.163 268.424 516.035 266.241 515.607Z"
        fill="#C4B6FF"></path>
    <path
        d="M254.354 561.546C255.465 561.558 256.568 561.566 257.671 561.51C258.772 561.484 259.871 561.427 260.963 561.325C263.147 561.122 265.319 560.831 267.429 560.301C269.536 559.785 271.596 559.051 273.458 557.957C275.331 556.879 276.935 555.352 278.128 553.476C277.713 554.509 277.103 555.462 276.395 556.342C275.664 557.206 274.786 557.936 273.861 558.589C271.996 559.895 269.836 560.693 267.661 561.247C265.472 561.772 263.235 562.044 261.002 562.07C258.771 562.103 256.537 561.975 254.354 561.546Z"
        fill="#C4B6FF"></path>
    <path
        d="M142.578 529.082C143.689 529.093 144.792 529.101 145.895 529.045C146.996 529.019 148.095 528.963 149.187 528.86C151.371 528.657 153.543 528.367 155.652 527.836C157.76 527.32 159.82 526.587 161.682 525.492C163.555 524.414 165.159 522.887 166.352 521.011C165.937 522.044 165.327 522.997 164.619 523.877C163.888 524.741 163.01 525.471 162.085 526.124C160.22 527.431 158.059 528.229 155.885 528.782C153.696 529.307 151.459 529.579 149.226 529.605C146.995 529.638 144.761 529.511 142.578 529.082Z"
        fill="#C4B6FF"></path>
    <path
        d="M524.358 519.748C525.469 519.76 526.572 519.768 527.675 519.712C528.776 519.686 529.875 519.629 530.967 519.526C533.151 519.324 535.323 519.033 537.432 518.503C539.54 517.987 541.6 517.253 543.462 516.159C545.335 515.08 546.939 513.553 548.132 511.678C547.717 512.71 547.107 513.663 546.399 514.544C545.668 515.408 544.79 516.138 543.865 516.791C542 518.097 539.839 518.895 537.665 519.449C535.476 519.974 533.239 520.245 531.006 520.272C528.775 520.305 526.541 520.177 524.358 519.748Z"
        fill="#C4B6FF"></path>
    <path
        d="M654.397 541.978C655.508 541.99 656.611 541.998 657.713 541.942C658.815 541.916 659.913 541.859 661.006 541.756C663.19 541.554 665.362 541.263 667.471 540.733C669.579 540.217 671.639 539.483 673.501 538.389C675.373 537.31 676.978 535.783 678.171 533.908C677.756 534.94 677.146 535.893 676.438 536.774C675.707 537.638 674.829 538.368 673.904 539.021C672.039 540.327 669.878 541.125 667.704 541.679C665.515 542.204 663.278 542.475 661.045 542.502C658.814 542.535 656.58 542.407 654.397 541.978Z"
        fill="#C4B6FF"></path>
    <path
        d="M742.321 561.546C743.432 561.558 744.535 561.566 745.638 561.51C746.739 561.484 747.837 561.427 748.93 561.325C751.114 561.122 753.286 560.831 755.395 560.301C757.503 559.785 759.563 559.051 761.425 557.957C763.298 556.879 764.902 555.352 766.095 553.476C765.68 554.509 765.07 555.462 764.362 556.342C763.631 557.206 762.753 557.936 761.828 558.589C759.963 559.895 757.802 560.693 755.628 561.247C753.439 561.772 751.202 562.044 748.969 562.07C746.738 562.103 744.504 561.975 742.321 561.546Z"
        fill="#C4B6FF"></path>
    <path
        d="M177.014 565.689C178.124 565.7 179.228 565.708 180.33 565.652C181.431 565.626 182.53 565.57 183.623 565.467C185.807 565.264 187.979 564.974 190.088 564.443C192.196 563.927 194.256 563.193 196.117 562.099C197.99 561.021 199.595 559.494 200.787 557.618C200.373 558.651 199.763 559.604 199.055 560.484C198.323 561.348 197.446 562.078 196.521 562.731C194.655 564.038 192.495 564.835 190.321 565.389C188.132 565.914 185.895 566.186 183.662 566.212C181.431 566.245 179.197 566.118 177.014 565.689Z"
        fill="#C4B6FF"></path>
    <path
        d="M226.458 467.281C227.569 467.293 228.672 467.301 229.775 467.245C230.876 467.219 231.975 467.162 233.067 467.059C235.251 466.857 237.423 466.566 239.533 466.036C241.64 465.52 243.7 464.786 245.562 463.692C247.435 462.613 249.039 461.087 250.232 459.211C249.817 460.244 249.207 461.197 248.499 462.077C247.768 462.941 246.89 463.671 245.965 464.324C244.1 465.63 241.94 466.428 239.765 466.982C237.576 467.507 235.339 467.778 233.106 467.805C230.875 467.838 228.641 467.71 226.458 467.281Z"
        fill="#C4B6FF"></path>
    <path
        d="M226.458 502.879C227.569 502.89 228.672 502.898 229.775 502.842C230.876 502.816 231.975 502.759 233.067 502.657C235.251 502.454 237.423 502.163 239.533 501.633C241.64 501.117 243.7 500.383 245.562 499.289C247.435 498.211 249.039 496.684 250.232 494.808C249.817 495.841 249.207 496.794 248.499 497.674C247.768 498.538 246.89 499.268 245.965 499.921C244.1 501.227 241.94 502.025 239.765 502.579C237.576 503.104 235.339 503.376 233.106 503.402C230.875 503.435 228.641 503.307 226.458 502.879Z"
        fill="#C4B6FF"></path>
    <path
        d="M328.531 468.297C329.642 468.308 330.745 468.316 331.848 468.261C332.949 468.235 334.048 468.178 335.14 468.075C337.324 467.873 339.496 467.582 341.606 467.052C343.713 466.535 345.773 465.802 347.635 464.707C349.508 463.629 351.112 462.102 352.305 460.227C351.89 461.259 351.28 462.212 350.572 463.093C349.841 463.957 348.963 464.686 348.038 465.34C346.173 466.646 344.013 467.444 341.838 467.998C339.649 468.523 337.412 468.794 335.179 468.821C332.948 468.854 330.714 468.726 328.531 468.297Z"
        fill="#C4B6FF"></path>
    <path
        d="M308.563 447.399C309.673 447.41 310.777 447.418 311.879 447.362C312.98 447.336 314.079 447.28 315.172 447.177C317.356 446.974 319.528 446.683 321.637 446.153C323.745 445.637 325.805 444.903 327.667 443.809C329.539 442.731 331.144 441.204 332.336 439.328C331.922 440.361 331.312 441.314 330.604 442.194C329.872 443.058 328.995 443.788 328.07 444.441C326.205 445.748 324.044 446.545 321.87 447.099C319.681 447.624 317.444 447.896 315.211 447.922C312.98 447.955 310.746 447.827 308.563 447.399Z"
        fill="#C4B6FF"></path>
    <path
        d="M31.6909 552.013C32.8013 552.025 33.9047 552.033 35.0072 551.977C36.1083 551.951 37.2071 551.894 38.2998 551.791C40.4837 551.589 42.6555 551.298 44.7649 550.768C46.8727 550.252 48.9328 549.518 50.7945 548.424C52.6672 547.345 54.2719 545.819 55.4643 543.943C55.0496 544.975 54.4398 545.929 53.7316 546.809C53.0004 547.673 52.1227 548.403 51.1978 549.056C49.3325 550.362 47.1719 551.16 44.9978 551.714C42.8087 552.239 40.5719 552.51 38.3388 552.537C36.1078 552.57 33.8739 552.442 31.6909 552.013Z"
        fill="#C4B6FF"></path>
    <path
        d="M59.3074 569.83C60.4178 569.842 61.5211 569.85 62.6236 569.794C63.7247 569.768 64.8235 569.711 65.9162 569.608C68.1001 569.406 70.272 569.115 72.3814 568.585C74.4892 568.069 76.5493 567.335 78.4109 566.241C80.2836 565.162 81.8883 563.635 83.0808 561.76C82.6661 562.792 82.0563 563.745 81.3481 564.626C80.6169 565.49 79.7392 566.22 78.8143 566.873C76.9489 568.179 74.7884 568.977 72.6142 569.531C70.4251 570.056 68.1884 570.327 65.9552 570.354C63.7243 570.387 61.4903 570.259 59.3074 569.83Z"
        fill="#C4B6FF"></path>
    <path
        d="M97.6052 537.836C98.7156 537.847 99.819 537.856 100.921 537.8C102.023 537.774 103.121 537.717 104.214 537.614C106.398 537.412 108.57 537.121 110.679 536.591C112.787 536.075 114.847 535.341 116.709 534.246C118.581 533.168 120.186 531.641 121.379 529.766C120.964 530.798 120.354 531.751 119.646 532.632C118.915 533.496 118.037 534.225 117.112 534.879C115.247 536.185 113.086 536.983 110.912 537.537C108.723 538.062 106.486 538.333 104.253 538.36C102.022 538.393 99.7882 538.265 97.6052 537.836Z"
        fill="#C4B6FF"></path>
    <path
        d="M142.578 569.795C143.689 569.806 144.792 569.815 145.895 569.759C146.996 569.733 148.095 569.676 149.187 569.573C151.371 569.371 153.543 569.08 155.652 568.55C157.76 568.034 159.82 567.3 161.682 566.205C163.555 565.127 165.159 563.6 166.352 561.725C165.937 562.757 165.327 563.71 164.619 564.591C163.888 565.455 163.01 566.184 162.085 566.838C160.22 568.144 158.059 568.942 155.885 569.496C153.696 570.021 151.459 570.292 149.226 570.319C146.995 570.352 144.761 570.224 142.578 569.795Z"
        fill="#C4B6FF"></path>
    <path
        d="M586.459 524.94C587.569 524.951 588.673 524.959 589.775 524.903C590.876 524.877 591.975 524.821 593.068 524.718C595.252 524.515 597.424 524.224 599.533 523.694C601.641 523.178 603.701 522.444 605.563 521.35C607.435 520.272 609.04 518.745 610.232 516.869C609.818 517.902 609.208 518.855 608.5 519.735C607.768 520.599 606.891 521.329 605.966 521.982C604.101 523.289 601.94 524.086 599.766 524.64C597.577 525.165 595.34 525.437 593.107 525.463C590.876 525.496 588.642 525.368 586.459 524.94Z"
        fill="#C4B6FF"></path>
    <path
        d="M467.292 466.475C470.531 466.565 473.747 466.419 476.931 466.133C480.11 465.811 483.27 465.324 486.307 464.431C489.354 463.587 492.273 462.318 494.879 460.556C496.164 459.653 497.368 458.629 498.453 457.469C499.542 456.309 500.434 454.979 501.277 453.59C500.737 455.12 499.949 456.567 499.012 457.927C498.021 459.244 496.861 460.444 495.563 461.48C492.95 463.539 489.875 464.944 486.712 465.847C483.539 466.748 480.265 467.184 477.002 467.277C473.74 467.373 470.471 467.131 467.292 466.475Z"
        fill="#C4B6FF"></path>
    <path
        d="M202 535.336C205.002 536.553 208.066 537.543 211.148 538.391C214.238 539.202 217.369 539.853 220.526 540.081C223.676 540.356 226.855 540.19 229.912 539.453C231.432 539.056 232.919 538.519 234.341 537.813C235.768 537.108 237.069 536.174 238.345 535.169C237.303 536.413 236.058 537.492 234.704 538.437C233.315 539.324 231.808 540.042 230.229 540.558C227.061 541.571 223.689 541.81 220.41 541.548C217.122 541.28 213.903 540.542 210.814 539.486C207.725 538.434 204.748 537.063 202 535.336Z"
        fill="#C4B6FF"></path>
    <path
        d="M269.113 460.64C272.115 461.857 275.179 462.847 278.261 463.695C281.352 464.506 284.482 465.157 287.639 465.385C290.789 465.66 293.968 465.494 297.025 464.757C298.546 464.36 300.032 463.823 301.454 463.117C302.881 462.412 304.182 461.479 305.459 460.473C304.416 461.717 303.172 462.796 301.818 463.741C300.428 464.628 298.921 465.346 297.343 465.862C294.174 466.875 290.802 467.114 287.523 466.852C284.235 466.585 281.016 465.847 277.928 464.791C274.838 463.739 271.861 462.367 269.113 460.64Z"
        fill="#C4B6FF"></path>
    <path
        d="M392.556 547.1C395.904 548.058 399.287 548.8 402.676 549.419C406.07 550.008 409.487 550.438 412.905 550.502C414.613 550.564 416.321 550.503 418.014 550.339C419.71 550.198 421.391 549.914 423.035 549.49C426.326 548.655 429.461 547.159 432.137 544.912C431.012 546.247 429.644 547.376 428.174 548.362C426.682 549.321 425.042 550.037 423.357 550.594C419.975 551.709 416.391 552.041 412.871 551.974C409.342 551.878 405.845 551.371 402.442 550.54C399.037 549.72 395.708 548.593 392.556 547.1Z"
        fill="#C4B6FF"></path>
    <path
        d="M663.712 559.806C667.06 560.764 670.444 561.506 673.833 562.125C677.226 562.714 680.643 563.144 684.061 563.208C685.769 563.27 687.477 563.209 689.17 563.045C690.866 562.904 692.547 562.62 694.191 562.196C697.482 561.361 700.617 559.865 703.293 557.618C702.168 558.954 700.8 560.082 699.33 561.068C697.839 562.027 696.198 562.743 694.514 563.3C691.131 564.415 687.547 564.747 684.027 564.68C680.498 564.584 677.002 564.077 673.598 563.246C670.193 562.426 666.864 561.299 663.712 559.806Z"
        fill="#C4B6FF"></path>
    <path
        d="M742.321 572.196C745.669 573.154 749.053 573.896 752.442 574.516C755.836 575.105 759.252 575.535 762.671 575.598C764.379 575.66 766.087 575.6 767.78 575.436C769.476 575.295 771.157 575.01 772.801 574.587C776.092 573.752 779.226 572.256 781.902 570.009C780.777 571.344 779.41 572.473 777.939 573.458C776.448 574.418 774.808 575.134 773.123 575.69C769.74 576.806 766.156 577.138 762.636 577.07C759.107 576.975 755.611 576.467 752.207 575.637C748.803 574.816 745.474 573.689 742.321 572.196Z"
        fill="#C4B6FF"></path>
    <path
        d="M516.455 483.588C519.803 484.546 523.186 485.288 526.575 485.907C529.969 486.496 533.386 486.927 536.804 486.99C538.512 487.052 540.22 486.991 541.913 486.827C543.609 486.686 545.29 486.402 546.934 485.978C550.225 485.143 553.36 483.647 556.036 481.4C554.911 482.736 553.543 483.865 552.073 484.85C550.581 485.809 548.941 486.525 547.256 487.082C543.874 488.197 540.29 488.53 536.769 488.462C533.24 488.366 529.744 487.859 526.341 487.029C522.936 486.208 519.607 485.081 516.455 483.588Z"
        fill="#C4B6FF"></path>
    <path
        d="M501.278 547.1C504.626 548.058 508.009 548.8 511.398 549.419C514.792 550.008 518.209 550.438 521.627 550.502C523.335 550.564 525.043 550.503 526.736 550.339C528.432 550.198 530.113 549.914 531.757 549.49C535.048 548.655 538.183 547.159 540.858 544.912C539.734 546.247 538.366 547.376 536.896 548.362C535.404 549.321 533.764 550.037 532.079 550.594C528.697 551.709 525.113 552.041 521.592 551.974C518.063 551.878 514.567 551.371 511.164 550.54C507.759 549.72 504.43 548.593 501.278 547.1Z"
        fill="#C4B6FF"></path>
    <path
        d="M367.837 442.485C371.185 443.443 374.568 444.185 377.957 444.805C381.351 445.394 384.768 445.824 388.186 445.887C389.894 445.949 391.602 445.889 393.295 445.725C394.991 445.584 396.672 445.299 398.316 444.876C401.607 444.041 404.742 442.545 407.418 440.298C406.293 441.633 404.925 442.762 403.455 443.747C401.963 444.707 400.323 445.423 398.638 445.979C395.256 447.095 391.672 447.427 388.152 447.359C384.623 447.264 381.126 446.756 377.723 445.926C374.318 445.105 370.989 443.978 367.837 442.485Z"
        fill="#C4B6FF"></path>
    <path
        d="M302.969 537.065C306.317 538.022 309.701 538.765 313.089 539.384C316.483 539.973 319.9 540.403 323.318 540.467C325.026 540.528 326.734 540.468 328.427 540.304C330.123 540.163 331.804 539.879 333.448 539.455C336.739 538.62 339.874 537.124 342.55 534.877C341.425 536.212 340.057 537.341 338.587 538.327C337.095 539.286 335.455 540.002 333.77 540.558C330.388 541.674 326.804 542.006 323.284 541.939C319.755 541.843 316.258 541.335 312.855 540.505C309.45 539.684 306.121 538.557 302.969 537.065Z"
        fill="#C4B6FF"></path>
    <path
        d="M372.765 494.793C376.113 495.751 379.497 496.493 382.886 497.112C386.279 497.701 389.696 498.132 393.114 498.195C394.823 498.257 396.53 498.196 398.223 498.032C399.92 497.891 401.601 497.607 403.245 497.183C406.536 496.348 409.67 494.853 412.346 492.605C411.221 493.941 409.853 495.07 408.383 496.055C406.892 497.014 405.252 497.73 403.567 498.287C400.184 499.402 396.6 499.735 393.08 499.667C389.551 499.571 386.055 499.064 382.651 498.234C379.247 497.413 375.918 496.286 372.765 494.793Z"
        fill="#C4B6FF"></path>
    <path
        d="M86.9243 556.633C90.2725 557.591 93.6561 558.333 97.045 558.953C100.439 559.542 103.855 559.972 107.274 560.035C108.982 560.097 110.69 560.037 112.383 559.873C114.079 559.732 115.76 559.447 117.404 559.024C120.695 558.189 123.829 556.693 126.505 554.446C125.38 555.781 124.013 556.91 122.542 557.895C121.051 558.855 119.411 559.571 117.726 560.127C114.343 561.243 110.759 561.575 107.239 561.507C103.71 561.412 100.214 560.904 96.8103 560.074C93.4059 559.253 90.0767 558.126 86.9243 556.633Z"
        fill="#C4B6FF"></path>
    <path
        d="M332.336 499.81C333.364 500.176 334.386 500.542 335.426 500.854C336.455 501.191 337.492 501.502 338.537 501.774C340.626 502.323 342.73 502.793 344.856 503.064C346.978 503.337 349.127 503.422 351.237 503.146C352.293 503.016 353.338 502.775 354.33 502.382C355.338 502.024 356.282 501.498 357.175 500.868C355.647 502.441 353.535 503.437 351.356 503.848C349.172 504.307 346.924 504.242 344.738 503.982C342.552 503.68 340.402 503.173 338.331 502.453C336.26 501.741 334.232 500.897 332.336 499.81Z"
        fill="#C4B6FF"></path>
    <path fill-rule="evenodd" clip-rule="evenodd"
        d="M528.703 342.016C538.073 355.049 535.103 373.21 522.07 382.58C501.786 397.163 469.981 407.734 441.383 414.992C411.692 422.528 380.584 427.659 358.472 429.553C342.479 430.923 328.404 419.069 327.034 403.076C325.664 387.083 337.518 373.007 353.511 371.637C372.169 370.039 400.146 365.487 427.083 358.65C455.114 351.536 477.48 343.046 488.14 335.383C501.173 326.013 519.334 328.983 528.703 342.016Z"
        fill="#C4B6FF"></path>
    <path
        d="M353.698 238.281C368.854 236.77 368.979 239.837 384.277 239.837C399.578 239.837 399.578 238.63 414.878 238.63C423.18 238.63 426.915 238.606 431.017 238.827C444.956 239.574 444.965 240.98 431.036 241.893C426.917 242.163 423.11 242.201 414.882 242.201C399.582 242.201 399.582 240.527 384.282 240.527C368.981 240.527 369.032 241.573 353.834 240.291C351.479 240.092 351.617 238.488 353.698 238.281Z"
        fill="#F1F2F2"></path>
    <path
        d="M445.143 264.497C437.512 265.258 433.472 265.131 429.606 264.546C425.794 263.97 422.103 263.146 414.507 263.146C406.857 263.146 403.128 263.585 399.303 263.887C395.478 264.189 391.557 263.656 383.907 263.656C376.258 263.656 372.436 264.452 368.682 264.283C364.927 264.114 361.235 263.2 353.654 262.445C351.574 262.237 351.484 262.808 353.564 262.601C361.14 261.846 364.825 260.948 368.633 260.727C372.444 260.505 376.251 259.747 383.902 259.747C391.553 259.747 395.241 261.358 399.066 261.776C402.891 262.195 406.853 262.007 414.503 262.007C422.136 262.007 425.975 262.222 429.766 262.12C433.575 262.018 437.387 261.22 445.003 261.862C447.358 262.061 447.224 264.29 445.143 264.497Z"
        fill="#F1F2F2"></path>
    <path
        d="M455.331 381.288C461.85 390.077 465.927 407.199 461.465 408.629C423.898 420.67 389.417 426.466 364.486 429.021C362.78 429.206 361.151 429.362 359.621 429.489C358.704 429.566 357.788 429.605 356.881 429.605C347.199 429.605 338.385 425.189 332.535 418.14C328.538 413.333 327.51 407.3 326.944 400.612C325.452 383.179 335.841 373.917 353.284 372.425C380.384 370.108 407.572 363.043 407.572 363.043C407.572 363.043 417.789 365.242 428.679 367.336C438.631 369.25 448.332 371.852 455.331 381.288Z"
        fill="#383838" fill-opacity="0.2"></path>
    <path
        d="M517.521 429.976H464.267C456.071 429.976 449.426 423.331 449.426 415.135V415.135C449.426 406.938 456.071 400.293 464.267 400.293H517.521C525.718 400.293 532.362 406.938 532.362 415.135V415.135C532.362 423.331 525.718 429.976 517.521 429.976Z"
        fill="#B5CDFB"></path>
    <path
        d="M462.486 423.819C455.948 424.237 449.41 423.848 442.873 422.654V400.905C448.916 403.138 454.96 403.977 461.004 403.424C466.903 402.884 471.933 407.698 471.933 413.622V413.622C471.933 418.967 467.82 423.478 462.486 423.819Z"
        fill="#926D5A"></path>
    <path fill-rule="evenodd" clip-rule="evenodd"
        d="M268.086 345.321C275.63 331.153 293.232 325.784 307.4 333.328C324.05 342.195 347.235 352.013 370.637 359.978C394.41 368.068 416.143 373.466 430.311 374.689C446.303 376.068 458.149 390.151 456.769 406.143C455.389 422.136 441.306 433.981 425.314 432.601C404.141 430.774 377.17 423.603 351.909 415.006C326.276 406.283 300.094 395.294 280.078 384.635C265.91 377.091 260.541 359.489 268.086 345.321Z"
        fill="#C4B6FF"></path>
</svg>